<svg id="svg" xmlns="http://www.w3.org/2000/svg" xmlns:xlink="http://www.w3.org/1999/xlink" width="400" height="400" viewBox="0, 0, 400,400"><g id="svgg"><path id="path0" d="M174.609 1.194 C 10.347 22.596,-58.723 223.190,57.641 340.893 C 163.812 448.286,348.023 402.897,391.657 258.594 C 433.676 119.630,318.048 -17.495,174.609 1.194 M86.223 79.744 C 89.320 82.180,88.885 84.601,84.506 89.305 C 68.823 106.151,57.231 124.788,49.913 144.922 C 46.174 155.208,42.766 157.496,38.910 152.307 C 34.128 145.872,57.211 103.563,76.392 83.606 C 82.091 77.677,83.094 77.283,86.223 79.744 M203.590 81.332 C 205.020 82.912,205.086 85.160,205.289 138.738 L 205.499 194.501 261.262 194.711 C 323.156 194.945,320.313 194.690,320.312 200.000 C 320.312 205.310,323.156 205.055,261.262 205.289 L 205.499 205.499 205.289 261.262 C 205.055 323.156,205.310 320.312,200.000 320.312 C 194.690 320.313,194.945 323.156,194.711 261.262 L 194.501 205.499 138.738 205.289 C 76.844 205.055,79.688 205.310,79.688 200.000 C 79.688 194.690,76.844 194.945,138.738 194.711 L 194.501 194.501 194.711 138.738 C 194.945 76.844,194.690 79.688,200.000 79.688 C 201.156 79.688,202.771 80.427,203.590 81.332 M38.591 196.786 C 39.628 197.932,40.076 200.662,40.607 209.090 C 45.774 291.025,108.946 354.347,190.475 359.316 C 202.680 360.059,204.699 360.835,204.676 364.770 C 204.647 369.634,202.515 370.316,189.822 369.525 C 103.959 364.172,35.851 296.106,30.530 210.331 C 29.874 199.768,30.178 197.357,32.344 195.910 C 33.944 194.842,37.251 195.305,38.591 196.786 " stroke="none" fill="#000000" fill-rule="evenodd"></path></g></svg>