<svg id="svg" xmlns="http://www.w3.org/2000/svg" xmlns:xlink="http://www.w3.org/1999/xlink" width="400" height="400" viewBox="0, 0, 400,400"><g id="svgg"><path id="path0" d="M65.707 1.201 C 34.657 7.979,12.118 28.884,2.566 59.766 L 0.391 66.797 0.391 200.000 L 0.391 333.203 2.570 340.234 C 11.459 368.911,31.227 388.686,59.766 397.450 L 66.797 399.609 200.000 399.609 L 333.203 399.609 340.234 397.450 C 368.773 388.686,388.541 368.911,397.430 340.234 L 399.609 333.203 399.609 200.000 L 399.609 66.797 397.450 59.766 C 388.680 31.208,368.899 11.433,340.234 2.566 L 333.203 0.391 201.953 0.251 C 92.154 0.134,69.887 0.289,65.707 1.201 M158.005 151.364 L 200.000 193.354 241.995 151.364 C 285.902 107.463,285.775 107.572,289.196 110.668 C 292.764 113.897,292.920 113.715,248.636 158.005 L 206.646 200.000 248.636 241.995 C 292.537 285.902,292.428 285.775,289.332 289.196 C 286.103 292.764,286.285 292.920,241.995 248.636 L 200.000 206.646 158.005 248.636 C 114.098 292.537,114.225 292.428,110.804 289.332 C 107.236 286.103,107.080 286.285,151.364 241.995 L 193.354 200.000 151.364 158.005 C 107.463 114.098,107.572 114.225,110.668 110.804 C 113.897 107.236,113.715 107.080,158.005 151.364 M36.352 179.177 C 37.341 180.589,37.502 190.609,37.514 251.541 C 37.530 338.066,37.207 335.684,50.768 349.222 C 64.344 362.774,62.106 362.470,148.242 362.486 C 217.699 362.500,218.773 362.523,220.313 364.063 C 222.394 366.144,222.287 368.872,220.042 370.981 L 218.209 372.703 145.237 372.484 L 72.266 372.266 66.797 370.431 C 48.372 364.249,35.751 351.628,29.569 333.203 L 27.734 327.734 27.516 254.484 C 27.361 202.527,27.546 180.769,28.153 179.635 C 29.870 176.426,34.254 176.182,36.352 179.177 " stroke="none" fill="#000000" fill-rule="evenodd"></path></g></svg>